<mxfile host="app.diagrams.net" agent="Mozilla/5.0 (Windows NT 10.0; Win64; x64; rv:109.0) Gecko/20100101 Firefox/115.0" version="24.8.3">
  <diagram name="Page-1" id="2cc2dc42-3aac-f2a9-1cec-7a8b7cbee084">
    <mxGraphModel dx="1308" dy="842" grid="1" gridSize="10" guides="1" tooltips="1" connect="1" arrows="1" fold="1" page="1" pageScale="1" pageWidth="1100" pageHeight="850" background="none" math="0" shadow="0">
      <root>
        <mxCell id="0" />
        <mxCell id="1" parent="0" />
        <mxCell id="7026571954dc6520-1" value="" style="strokeWidth=1;shadow=0;dashed=0;align=center;html=1;shape=mxgraph.mockup.containers.browserWindow;rSize=0;strokeColor=#666666;mainText=,;recursiveResize=0;rounded=0;labelBackgroundColor=none;fontFamily=Verdana;fontSize=12" parent="1" vertex="1">
          <mxGeometry x="30" y="20" width="1054" height="1150" as="geometry" />
        </mxCell>
        <mxCell id="7026571954dc6520-2" value="&lt;div&gt;PC Parts Sh...&lt;/div&gt;" style="strokeWidth=1;shadow=0;dashed=0;align=center;html=1;shape=mxgraph.mockup.containers.anchor;fontSize=17;fontColor=#666666;align=left;" parent="7026571954dc6520-1" vertex="1">
          <mxGeometry x="60" y="12" width="110" height="26" as="geometry" />
        </mxCell>
        <mxCell id="7026571954dc6520-3" value="&lt;div&gt;https://www.pc-parts-shop.com/product/1/&lt;/div&gt;" style="strokeWidth=1;shadow=0;dashed=0;align=center;html=1;shape=mxgraph.mockup.containers.anchor;rSize=0;fontSize=17;fontColor=#666666;align=left;" parent="7026571954dc6520-1" vertex="1">
          <mxGeometry x="130" y="60" width="250" height="26" as="geometry" />
        </mxCell>
        <mxCell id="7026571954dc6520-4" value="&lt;div align=&quot;center&quot;&gt;&lt;font style=&quot;font-size: 36px;&quot;&gt;PC Parts Shop&lt;/font&gt;&lt;/div&gt;" style="text;html=1;points=[];align=center;verticalAlign=top;spacingTop=-4;fontSize=30;fontFamily=Verdana" parent="7026571954dc6520-1" vertex="1">
          <mxGeometry x="355" y="150" width="340" height="50" as="geometry" />
        </mxCell>
        <mxCell id="7026571954dc6520-15" value="" style="verticalLabelPosition=bottom;shadow=0;dashed=0;align=center;html=1;verticalAlign=top;strokeWidth=1;shape=mxgraph.mockup.markup.line;strokeColor=#999999;rounded=0;labelBackgroundColor=none;fillColor=#ffffff;fontFamily=Verdana;fontSize=12;fontColor=#000000;" parent="7026571954dc6520-1" vertex="1">
          <mxGeometry y="230" width="1050" height="20" as="geometry" />
        </mxCell>
        <mxCell id="7026571954dc6520-16" value="Navbar Item" style="text;html=1;points=[];align=left;verticalAlign=top;spacingTop=-4;fontSize=15;fontFamily=Verdana;fillColor=#dae8fc;strokeColor=#6c8ebf;" parent="7026571954dc6520-1" vertex="1">
          <mxGeometry x="34" y="250" width="100" height="30" as="geometry" />
        </mxCell>
        <mxCell id="7026571954dc6520-21" value="" style="verticalLabelPosition=bottom;shadow=0;dashed=0;align=center;html=1;verticalAlign=top;strokeWidth=1;shape=mxgraph.mockup.markup.line;strokeColor=#999999;rounded=0;labelBackgroundColor=none;fillColor=#ffffff;fontFamily=Verdana;fontSize=12;fontColor=#000000;" parent="7026571954dc6520-1" vertex="1">
          <mxGeometry x="2" y="1110" width="1050" height="20" as="geometry" />
        </mxCell>
        <mxCell id="7026571954dc6520-22" value="" style="verticalLabelPosition=bottom;shadow=0;dashed=0;align=center;html=1;verticalAlign=top;strokeWidth=1;shape=mxgraph.mockup.graphics.simpleIcon;strokeColor=#999999;fillColor=#ffffff;rounded=0;labelBackgroundColor=none;fontFamily=Verdana;fontSize=12;fontColor=#000000;" parent="7026571954dc6520-1" vertex="1">
          <mxGeometry x="30" y="300" width="545" height="440" as="geometry" />
        </mxCell>
        <mxCell id="7026571954dc6520-18" value="Add to cart" style="strokeWidth=1;shadow=0;dashed=0;align=center;html=1;shape=mxgraph.mockup.buttons.button;strokeColor=#666666;mainText=;buttonStyle=round;fontSize=17;fontStyle=0;fillColor=none;whiteSpace=wrap;rounded=0;labelBackgroundColor=none;" parent="7026571954dc6520-1" vertex="1">
          <mxGeometry x="604" y="700" width="396" height="40" as="geometry" />
        </mxCell>
        <mxCell id="7026571954dc6520-34" value="&lt;div&gt;Long product description&lt;/div&gt;&lt;div&gt;Lorem ipsum&lt;/div&gt;&lt;div&gt;&lt;div&gt;Lorem ipsum&lt;br&gt;&lt;div&gt;Lorem ipsum&lt;br&gt;&lt;div&gt;Ipsum lorem&lt;br&gt;&lt;/div&gt;&lt;/div&gt;&lt;/div&gt;&lt;/div&gt;" style="text;html=1;points=[];align=left;verticalAlign=top;spacingTop=-4;fontSize=12;fontFamily=Verdana;whiteSpace=wrap;" parent="7026571954dc6520-1" vertex="1">
          <mxGeometry x="600" y="330" width="454" height="80" as="geometry" />
        </mxCell>
        <mxCell id="HpChw-fos6fTmwqIw70c-1" value="" style="verticalLabelPosition=bottom;shadow=0;dashed=0;align=center;html=1;verticalAlign=top;strokeWidth=1;shape=mxgraph.mockup.graphics.simpleIcon;strokeColor=#999999;fillColor=#ffffff;rounded=0;labelBackgroundColor=none;fontFamily=Verdana;fontSize=12;fontColor=#000000;" vertex="1" parent="7026571954dc6520-1">
          <mxGeometry x="52" y="115" width="140" height="120" as="geometry" />
        </mxCell>
        <mxCell id="HpChw-fos6fTmwqIw70c-2" value="" style="verticalLabelPosition=bottom;shadow=0;dashed=0;align=center;html=1;verticalAlign=top;strokeWidth=1;shape=mxgraph.mockup.graphics.simpleIcon;strokeColor=#999999;fillColor=#ffffff;rounded=0;labelBackgroundColor=none;fontFamily=Verdana;fontSize=12;fontColor=#000000;" vertex="1" parent="7026571954dc6520-1">
          <mxGeometry x="226" y="115" width="140" height="120" as="geometry" />
        </mxCell>
        <mxCell id="HpChw-fos6fTmwqIw70c-3" value="" style="verticalLabelPosition=bottom;shadow=0;dashed=0;align=center;html=1;verticalAlign=top;strokeWidth=1;shape=mxgraph.mockup.graphics.simpleIcon;strokeColor=#999999;fillColor=#ffffff;rounded=0;labelBackgroundColor=none;fontFamily=Verdana;fontSize=12;fontColor=#000000;" vertex="1" parent="7026571954dc6520-1">
          <mxGeometry x="682" y="115" width="140" height="120" as="geometry" />
        </mxCell>
        <mxCell id="HpChw-fos6fTmwqIw70c-4" value="" style="verticalLabelPosition=bottom;shadow=0;dashed=0;align=center;html=1;verticalAlign=top;strokeWidth=1;shape=mxgraph.mockup.graphics.simpleIcon;strokeColor=#999999;fillColor=#ffffff;rounded=0;labelBackgroundColor=none;fontFamily=Verdana;fontSize=12;fontColor=#000000;" vertex="1" parent="7026571954dc6520-1">
          <mxGeometry x="856" y="115" width="140" height="120" as="geometry" />
        </mxCell>
        <mxCell id="HpChw-fos6fTmwqIw70c-5" value="Navbar Item" style="text;html=1;points=[];align=left;verticalAlign=top;spacingTop=-4;fontSize=15;fontFamily=Verdana;fillColor=#dae8fc;strokeColor=#6c8ebf;" vertex="1" parent="7026571954dc6520-1">
          <mxGeometry x="144" y="250" width="100" height="30" as="geometry" />
        </mxCell>
        <mxCell id="HpChw-fos6fTmwqIw70c-6" value="Navbar Item" style="text;html=1;points=[];align=left;verticalAlign=top;spacingTop=-4;fontSize=15;fontFamily=Verdana;fillColor=#dae8fc;strokeColor=#6c8ebf;" vertex="1" parent="7026571954dc6520-1">
          <mxGeometry x="254" y="250" width="100" height="30" as="geometry" />
        </mxCell>
        <mxCell id="HpChw-fos6fTmwqIw70c-7" value="Navbar Item" style="text;html=1;points=[];align=left;verticalAlign=top;spacingTop=-4;fontSize=15;fontFamily=Verdana;fillColor=#dae8fc;strokeColor=#6c8ebf;" vertex="1" parent="7026571954dc6520-1">
          <mxGeometry x="364" y="250" width="100" height="30" as="geometry" />
        </mxCell>
        <mxCell id="HpChw-fos6fTmwqIw70c-8" value="Navbar Item" style="text;html=1;points=[];align=left;verticalAlign=top;spacingTop=-4;fontSize=15;fontFamily=Verdana;fillColor=#dae8fc;strokeColor=#6c8ebf;" vertex="1" parent="7026571954dc6520-1">
          <mxGeometry x="474" y="250" width="100" height="30" as="geometry" />
        </mxCell>
        <mxCell id="HpChw-fos6fTmwqIw70c-9" value="Navbar Item" style="text;html=1;points=[];align=left;verticalAlign=top;spacingTop=-4;fontSize=15;fontFamily=Verdana;fillColor=#dae8fc;strokeColor=#6c8ebf;" vertex="1" parent="7026571954dc6520-1">
          <mxGeometry x="584" y="250" width="100" height="30" as="geometry" />
        </mxCell>
        <mxCell id="HpChw-fos6fTmwqIw70c-10" value="Navbar Item" style="text;html=1;points=[];align=left;verticalAlign=top;spacingTop=-4;fontSize=15;fontFamily=Verdana;fillColor=#dae8fc;strokeColor=#6c8ebf;" vertex="1" parent="7026571954dc6520-1">
          <mxGeometry x="694" y="250" width="100" height="30" as="geometry" />
        </mxCell>
        <mxCell id="HpChw-fos6fTmwqIw70c-11" value="Navbar Item" style="text;html=1;points=[];align=left;verticalAlign=top;spacingTop=-4;fontSize=15;fontFamily=Verdana;fillColor=#dae8fc;strokeColor=#6c8ebf;" vertex="1" parent="7026571954dc6520-1">
          <mxGeometry x="804" y="250" width="100" height="30" as="geometry" />
        </mxCell>
        <mxCell id="HpChw-fos6fTmwqIw70c-12" value="Navbar Item" style="text;html=1;points=[];align=left;verticalAlign=top;spacingTop=-4;fontSize=15;fontFamily=Verdana;fillColor=#dae8fc;strokeColor=#6c8ebf;" vertex="1" parent="7026571954dc6520-1">
          <mxGeometry x="914" y="250" width="100" height="30" as="geometry" />
        </mxCell>
        <mxCell id="HpChw-fos6fTmwqIw70c-19" value="Qty" style="strokeWidth=1;shadow=0;dashed=0;align=center;html=1;shape=mxgraph.mockup.buttons.button;strokeColor=#666666;mainText=;buttonStyle=round;fontSize=17;fontStyle=0;fillColor=none;whiteSpace=wrap;rounded=0;labelBackgroundColor=none;" vertex="1" parent="7026571954dc6520-1">
          <mxGeometry x="604" y="660" width="75" height="30" as="geometry" />
        </mxCell>
        <mxCell id="7026571954dc6520-36" value="&lt;div align=&quot;center&quot;&gt;Site footer, including copyright information and other typical footer stuff.&lt;/div&gt;" style="text;spacingTop=-5;whiteSpace=wrap;html=1;align=center;fontSize=12;fontFamily=Helvetica;fillColor=none;strokeColor=none;rounded=0;shadow=1;labelBackgroundColor=none;" parent="7026571954dc6520-1" vertex="1">
          <mxGeometry x="275" y="1126" width="490" height="25" as="geometry" />
        </mxCell>
        <mxCell id="HpChw-fos6fTmwqIw70c-20" value="&lt;h1&gt;Product name&lt;br&gt;&lt;/h1&gt;" style="text;html=1;points=[];align=left;verticalAlign=top;spacingTop=-4;fontSize=12;fontFamily=Verdana;whiteSpace=wrap;" vertex="1" parent="7026571954dc6520-1">
          <mxGeometry x="600" y="280" width="364" height="40" as="geometry" />
        </mxCell>
        <mxCell id="HpChw-fos6fTmwqIw70c-21" value="&lt;h2&gt;More that may interest you&lt;br&gt;&lt;/h2&gt;" style="text;html=1;points=[];align=left;verticalAlign=top;spacingTop=-4;fontSize=12;fontFamily=Verdana;whiteSpace=wrap;" vertex="1" parent="7026571954dc6520-1">
          <mxGeometry x="20" y="830" width="290" height="40" as="geometry" />
        </mxCell>
        <mxCell id="HpChw-fos6fTmwqIw70c-22" value="" style="verticalLabelPosition=bottom;shadow=0;dashed=0;align=center;html=1;verticalAlign=top;strokeWidth=1;shape=mxgraph.mockup.graphics.simpleIcon;strokeColor=#999999;fillColor=#ffffff;rounded=0;labelBackgroundColor=none;fontFamily=Verdana;fontSize=12;fontColor=#000000;" vertex="1" parent="7026571954dc6520-1">
          <mxGeometry x="170" y="750" width="80" height="80" as="geometry" />
        </mxCell>
        <mxCell id="HpChw-fos6fTmwqIw70c-23" value="" style="verticalLabelPosition=bottom;shadow=0;dashed=0;align=center;html=1;verticalAlign=top;strokeWidth=1;shape=mxgraph.mockup.graphics.simpleIcon;strokeColor=#999999;fillColor=#ffffff;rounded=0;labelBackgroundColor=none;fontFamily=Verdana;fontSize=12;fontColor=#000000;" vertex="1" parent="7026571954dc6520-1">
          <mxGeometry x="20" y="880" width="230" height="210" as="geometry" />
        </mxCell>
        <mxCell id="HpChw-fos6fTmwqIw70c-24" value="" style="verticalLabelPosition=bottom;shadow=0;dashed=0;align=center;html=1;verticalAlign=top;strokeWidth=1;shape=mxgraph.mockup.graphics.simpleIcon;strokeColor=#999999;fillColor=#ffffff;rounded=0;labelBackgroundColor=none;fontFamily=Verdana;fontSize=12;fontColor=#000000;" vertex="1" parent="7026571954dc6520-1">
          <mxGeometry x="269" y="880" width="231" height="210" as="geometry" />
        </mxCell>
        <mxCell id="HpChw-fos6fTmwqIw70c-32" value="&lt;font style=&quot;font-size: 15px;&quot;&gt;&lt;b&gt;Product title&lt;br&gt;&lt;/b&gt;&lt;/font&gt;" style="text;html=1;points=[];align=left;verticalAlign=top;spacingTop=-4;fontSize=12;fontFamily=Verdana;whiteSpace=wrap;" vertex="1" parent="7026571954dc6520-1">
          <mxGeometry x="20" y="1090" width="150" height="40" as="geometry" />
        </mxCell>
        <mxCell id="HpChw-fos6fTmwqIw70c-33" value="&lt;font style=&quot;font-size: 15px;&quot;&gt;&lt;b&gt;Product title&lt;br&gt;&lt;/b&gt;&lt;/font&gt;" style="text;html=1;points=[];align=left;verticalAlign=top;spacingTop=-4;fontSize=12;fontFamily=Verdana;whiteSpace=wrap;" vertex="1" parent="7026571954dc6520-1">
          <mxGeometry x="269" y="1090" width="150" height="40" as="geometry" />
        </mxCell>
        <mxCell id="HpChw-fos6fTmwqIw70c-34" value="" style="verticalLabelPosition=bottom;shadow=0;dashed=0;align=center;html=1;verticalAlign=top;strokeWidth=1;shape=mxgraph.mockup.graphics.simpleIcon;strokeColor=#999999;fillColor=#ffffff;rounded=0;labelBackgroundColor=none;fontFamily=Verdana;fontSize=12;fontColor=#000000;" vertex="1" parent="7026571954dc6520-1">
          <mxGeometry x="262.5" y="750" width="80" height="80" as="geometry" />
        </mxCell>
        <mxCell id="HpChw-fos6fTmwqIw70c-35" value="" style="verticalLabelPosition=bottom;shadow=0;dashed=0;align=center;html=1;verticalAlign=top;strokeWidth=1;shape=mxgraph.mockup.graphics.simpleIcon;strokeColor=#999999;fillColor=#ffffff;rounded=0;labelBackgroundColor=none;fontFamily=Verdana;fontSize=12;fontColor=#000000;" vertex="1" parent="7026571954dc6520-1">
          <mxGeometry x="355" y="750" width="80" height="80" as="geometry" />
        </mxCell>
        <mxCell id="HpChw-fos6fTmwqIw70c-36" value="" style="verticalLabelPosition=bottom;shadow=0;dashed=0;align=center;html=1;verticalAlign=top;strokeWidth=1;shape=mxgraph.mockup.graphics.simpleIcon;strokeColor=#999999;fillColor=#ffffff;rounded=0;labelBackgroundColor=none;fontFamily=Verdana;fontSize=12;fontColor=#000000;" vertex="1" parent="7026571954dc6520-1">
          <mxGeometry x="520" y="880" width="230" height="210" as="geometry" />
        </mxCell>
        <mxCell id="HpChw-fos6fTmwqIw70c-37" value="&lt;font style=&quot;font-size: 15px;&quot;&gt;&lt;b&gt;Product title&lt;br&gt;&lt;/b&gt;&lt;/font&gt;" style="text;html=1;points=[];align=left;verticalAlign=top;spacingTop=-4;fontSize=12;fontFamily=Verdana;whiteSpace=wrap;" vertex="1" parent="7026571954dc6520-1">
          <mxGeometry x="520" y="1090" width="150" height="40" as="geometry" />
        </mxCell>
        <mxCell id="HpChw-fos6fTmwqIw70c-38" value="&lt;font style=&quot;font-size: 15px;&quot;&gt;Notes&lt;/font&gt;" style="rounded=0;whiteSpace=wrap;html=1;" vertex="1" parent="7026571954dc6520-1">
          <mxGeometry x="690" y="660" width="308" height="30" as="geometry" />
        </mxCell>
        <mxCell id="HpChw-fos6fTmwqIw70c-39" value="&lt;div&gt;Detailed product specifications&lt;/div&gt;&lt;div&gt;Lorem ipsum&lt;/div&gt;&lt;div&gt;Lorem ipsum&lt;/div&gt;&lt;div&gt;Lorem ipsum&lt;/div&gt;&lt;div&gt;Ipsum lorem&lt;br&gt;&lt;/div&gt;" style="text;html=1;points=[];align=left;verticalAlign=top;spacingTop=-4;fontSize=12;fontFamily=Verdana;whiteSpace=wrap;" vertex="1" parent="7026571954dc6520-1">
          <mxGeometry x="600" y="490" width="454" height="80" as="geometry" />
        </mxCell>
        <mxCell id="HpChw-fos6fTmwqIw70c-40" value="" style="verticalLabelPosition=bottom;shadow=0;dashed=0;align=center;html=1;verticalAlign=top;strokeWidth=1;shape=mxgraph.mockup.graphics.simpleIcon;strokeColor=#999999;fillColor=#ffffff;rounded=0;labelBackgroundColor=none;fontFamily=Verdana;fontSize=12;fontColor=#000000;" vertex="1" parent="7026571954dc6520-1">
          <mxGeometry x="765" y="880" width="230" height="210" as="geometry" />
        </mxCell>
        <mxCell id="HpChw-fos6fTmwqIw70c-41" value="&lt;font style=&quot;font-size: 15px;&quot;&gt;&lt;b&gt;Product title&lt;br&gt;&lt;/b&gt;&lt;/font&gt;" style="text;html=1;points=[];align=left;verticalAlign=top;spacingTop=-4;fontSize=12;fontFamily=Verdana;whiteSpace=wrap;" vertex="1" parent="7026571954dc6520-1">
          <mxGeometry x="765" y="1090" width="150" height="40" as="geometry" />
        </mxCell>
        <mxCell id="HpChw-fos6fTmwqIw70c-42" value="&lt;h2&gt;Discount details (if available)&lt;br&gt;&lt;/h2&gt;" style="text;html=1;points=[];align=left;verticalAlign=top;spacingTop=-4;fontSize=12;fontFamily=Verdana;whiteSpace=wrap;" vertex="1" parent="7026571954dc6520-1">
          <mxGeometry x="604" y="610" width="380" height="40" as="geometry" />
        </mxCell>
      </root>
    </mxGraphModel>
  </diagram>
</mxfile>
